<mxfile host="Electron" agent="Mozilla/5.0 (Macintosh; Intel Mac OS X 10_15_7) AppleWebKit/537.36 (KHTML, like Gecko) draw.io/24.7.8 Chrome/128.0.6613.36 Electron/32.0.1 Safari/537.36" version="24.7.8">
  <diagram id="zThKWCK-OZDQfVA2Wrdf" name="Page-1">
    <mxGraphModel dx="1314" dy="861" grid="1" gridSize="10" guides="1" tooltips="1" connect="1" arrows="1" fold="1" page="1" pageScale="1" pageWidth="850" pageHeight="1100" math="0" shadow="0">
      <root>
        <mxCell id="0" />
        <mxCell id="1" parent="0" />
        <mxCell id="PAmrMlfEqEvU_wZQyGdS-1" value="" style="rounded=0;whiteSpace=wrap;html=1;fillColor=none;" parent="1" vertex="1">
          <mxGeometry x="161" y="10" width="561" height="740" as="geometry" />
        </mxCell>
        <mxCell id="GkWwDTA8cZI0SZPYpKMh-3" value="" style="rounded=0;whiteSpace=wrap;html=1;fillColor=none;" parent="1" vertex="1">
          <mxGeometry x="302" y="310" width="400" height="420" as="geometry" />
        </mxCell>
        <mxCell id="GkWwDTA8cZI0SZPYpKMh-1" value="&lt;font style=&quot;font-size: 10px;&quot;&gt;&lt;b&gt;Bedrock&lt;/b&gt;&lt;/font&gt;&lt;div&gt;&lt;b style=&quot;background-color: initial; font-size: 10px;&quot;&gt;Knowledge base&lt;/b&gt;&lt;/div&gt;" style="sketch=0;points=[[0,0,0],[0.25,0,0],[0.5,0,0],[0.75,0,0],[1,0,0],[0,1,0],[0.25,1,0],[0.5,1,0],[0.75,1,0],[1,1,0],[0,0.25,0],[0,0.5,0],[0,0.75,0],[1,0.25,0],[1,0.5,0],[1,0.75,0]];outlineConnect=0;fontColor=#232F3E;fillColor=#01A88D;strokeColor=#ffffff;dashed=0;verticalLabelPosition=middle;verticalAlign=middle;align=left;html=1;fontSize=12;fontStyle=0;aspect=fixed;shape=mxgraph.aws4.resourceIcon;resIcon=mxgraph.aws4.bedrock;labelPosition=right;" parent="1" vertex="1">
          <mxGeometry x="302" y="310" width="40" height="40" as="geometry" />
        </mxCell>
        <mxCell id="GkWwDTA8cZI0SZPYpKMh-2" value="&lt;font style=&quot;font-size: 10px;&quot;&gt;&lt;b&gt;S3 bucket&lt;/b&gt;&lt;/font&gt;" style="sketch=0;outlineConnect=0;fontColor=#232F3E;gradientColor=none;fillColor=#7AA116;strokeColor=none;dashed=0;verticalLabelPosition=bottom;verticalAlign=top;align=center;html=1;fontSize=12;fontStyle=0;aspect=fixed;pointerEvents=1;shape=mxgraph.aws4.bucket_with_objects;" parent="1" vertex="1">
          <mxGeometry x="202" y="621" width="75" height="78" as="geometry" />
        </mxCell>
        <mxCell id="GkWwDTA8cZI0SZPYpKMh-4" value="" style="sketch=0;outlineConnect=0;fontColor=#232F3E;gradientColor=none;fillColor=#E7157B;strokeColor=none;dashed=0;verticalLabelPosition=bottom;verticalAlign=top;align=center;html=1;fontSize=12;fontStyle=0;aspect=fixed;pointerEvents=1;shape=mxgraph.aws4.documents;" parent="1" vertex="1">
          <mxGeometry x="46" y="621" width="64" height="78" as="geometry" />
        </mxCell>
        <mxCell id="GkWwDTA8cZI0SZPYpKMh-5" value="&lt;font style=&quot;font-size: 10px;&quot;&gt;&lt;b&gt;Retrieve context &lt;br&gt;and generate&lt;/b&gt;&lt;/font&gt;" style="sketch=0;points=[[0,0,0],[0.25,0,0],[0.5,0,0],[0.75,0,0],[1,0,0],[0,1,0],[0.25,1,0],[0.5,1,0],[0.75,1,0],[1,1,0],[0,0.25,0],[0,0.5,0],[0,0.75,0],[1,0.25,0],[1,0.5,0],[1,0.75,0]];outlineConnect=0;fontColor=#232F3E;fillColor=#01A88D;strokeColor=#ffffff;dashed=0;verticalLabelPosition=bottom;verticalAlign=top;align=center;html=1;fontSize=12;fontStyle=0;aspect=fixed;shape=mxgraph.aws4.resourceIcon;resIcon=mxgraph.aws4.bedrock;" parent="1" vertex="1">
          <mxGeometry x="424" y="350" width="78" height="78" as="geometry" />
        </mxCell>
        <mxCell id="GkWwDTA8cZI0SZPYpKMh-6" value="OpenSearch Serverless" style="shape=image;verticalLabelPosition=bottom;labelBackgroundColor=default;verticalAlign=top;aspect=fixed;imageAspect=0;image=data:image/png,iVBORw0KGgoAAAANSUhEUgAAAgAAAAIACAMAAADDpiTIAAACxFBMVEWMYN2Vbd+GVd+DUOGFUOGFUOOHUuOHUuWbYPebYPmbYvmdYvmdYvufZP2hZv92RtPn3fnn3fvp3vuXXvWZYPfDrO9qPMfr4/nLuO9qPMV9Tdl4SNNoPMWSa9uBTt+DTt92RNN1RtF0RNGWbOP38/3Wx/OLVOm/p+2WYu2edOluQMtuPstsPsnNufFyRM9yQs/f0/bMt/Khdezs5frQu/asiuq8m/SEYM60l+q9pOyYdNyCV9R6S9SJWt63muzFs+rPvPKFVtqQbNaIY9J+VtD6+P6XbuKacOSQW+q5mvKjeOzOufSFUuCkhOLh2faoiuK7pOi9p+h0Rc7Hs+6feeTFr+7z7/yuj+iPYuB8UdLUxPKTat7Jte6piea4n+iJX9hwQs2LVumNVul6StnHs+tkOL9iOL90RNPDsemLY9d8SttiNr9iNr2NVuuPWOuPWO3p4PqOaNiAUNjd0vTNvO6DUN96Std8StmDTuGwleX9+/9mOMGceN9kOMHh1/Pf1/NiOrlmPMFuQM1aMLdSLK+RWu+TWu96SNV6SNd+Stt+TNuBTN2BTt1qPseHWtnBq+v7+//RwPGDU9umgufn3/l4RtV4SNV3R9Odcuf+/f/////azfX7+f/18v1cMrd2RtXDsedaMrd4SNdaMLVYMLVYLrPBsedWLrNWLrFWLLFULLFULK9iOruLW+F+TN3k2vdoOsWRY+OJVuN4TM+mid9SKq1QKq1QKqtQKKtOKKtOKKlNJqmpjeGsj+OefN91SM/YyvNmOsOzmeXj2fVuQsf39f3h2fOigOHm3Pn59f10Rs9yRM3u5/vv6vvn3/eQZ9vcz/W7n+2JVOeLVOeTXPGVXPGVXPOXXvNwQM1wQcuxkuni1veHX9V+Tt1gNr2skOFgNLteNLvj2/NeNLnf1/FeMrlcMrnx7PuRWO+RWO2bc+N8TNeivfGWAAAACXBIWXMAAAsTAAALEwEAmpwYAAAgAElEQVR4nO2dj39U13XgH8SuW7epaV2XX8axsChZgi0a6g0IgS0HcH+EmB9CIPHTWycxW2c3iB8qipI43WYhQkYIGsgMyI3XTZrdxCGOSNJNsZCxqJyIX25kqQIap2lauvBP7Hsz82buuffcd+9577yZN/Cudrddz4zER/er77vn3HPvcY7nx1eK4xgY+71xQBx7c6NdN7785S50HCyObmk8VBofyI09+fG+0rhLGHff/SvouKc0/lE7fpobz6rjvxTGp3Pjvynjv4PxJf34n7kxqox3vTHmj3E47lfG72jHr/7qr/7ar/3aver49V//DWG83zB+szCc40QC2jUEdBW+VAIOdnW7XwIClSPgWZyAT7tfBAK+pCFgNPelEjCW+1IJuH/s/vtVAn4n96UQcG/xSyLgN4pfEgH+lzTxha/3ywAQHNAe5IAujQO6k+GAZ3UO+DSXA0Y1DhhDCRi7H3fA7+gdcK/OAb9BccBvvl8GIPJToGAAjQPAYyB5T4FPk54CQQ5AnwKeAhQHjI3fP34/8hTIGUDvAPUp4CuA4gD/KSAAwOOALo0DupPuANJTIMABozoHjI2Oyw7wDOBLQDGAzgH3ah2gPAWCDfB+GQAWB+ArwYPyUjB5DuBaB2hWgmPISnDMewqMo+sAdCXoG0DnAMo6wF8JAgA4HNClcUB38h3Asw4Y1TlgDHGAK4DSUlAxAO6AewMcYL8OKCwGf9O5LyQBOgcYosEkO4BnHfAlnQOUaHA89xQYLy4ELaJB3wDR1wH+/+LcF5YAjQO6dA7IR4PdiXYAzzpA54BcOKgQ4K0EsVhA64B7Ax1guw7ww0EXAF4HFEc1OoBnHUBywNh4KRa0c4A/oq0D/OEBkDqgXOsAFgfca3CA5TqgoIAcAKkDKrIOGA/ngNKItg4QDJA6oELrgPGiA/CVYEgHWK4DBAOkDqjEOmC8tBAQtgUYHEBZB/gApA6oxDpgvPAMKOwMITnB2NcBRQBSB5R5HeALwF8I4DnB2NcBJQBSB5R7HTDqTvtocRkwRssJMq0D3u88HJmA29ABsa8DxlwE3MkfLcYC/mOg7OsA5+HoBNyODoh5X8DTgAeA/xgYzz8FKpAPcGoYCLgNHRDzOiBfJDRegGB8bHTc3x0udz7AqeEg4HZ0QLzrgBwD73rzf38pJ8ydE7RZB7gApA6owDogL4CiA4p7g6wOsFkHeACkDqjUOiD/FLhfDAY1K8HY1gE5AFIHVGAdkCsTzBOQn/ycA5hzguZ1QB6A1AEVWQeMFdeBo+LeIGtO0LQOKACQOqAi+QDfAYWkcBw5QdM6wAcgdUBl6gTHSk+BUX9fgDknGLwOKAKQOqAi+wJjpYzQeKlUmDUnGLwOKAGQOqAy64BiQqhYHuBtD5ctHyAAkDqgEuuAXDBQSAgWMsNwWyDmdYAIQOqAyuQD8hIYy+UDxv2vcu0LOLOZCbgNHRB3PmC0tBIciyknqF8HOLO5CbgdHRD/vsC4+BgoZ52gC0DqgAqvAzAHlK1O0AMgdUAS1gGlveHiDSLlqBPMAZA6IFnrgGJGoAx1gnkAUgckYR0wVooF/TLB8djrBAsApA5IwjpgNFciMOYXio1Tzw6HWQf4AKQOSMA6oFQnmF8M5KY95nxAEYDUARVfBxSWASUDyIeG4lgHlABIHZCIdcC7Y0IsEHSXGNM6QAAgdUAS1gHjIBbws8Lx5QNEAFIHJGAdUNoZGivVB8SYD3Aei5GA29ABZcwHjBfXAXHmA5zH4iTgdnRAueoDhFiAepcYZR3gApA6IEHrAPHMUOi7xCjrAA+A1AGJWgeIh8bGpKwg/zogB0DqgAStA8RlQPG8gP7ESNR1QB6A1AGJXQf4DhgbL4UCnOsApy52Am5DB5RtHTAmbg7Fkg9w6uIn4HZ0QBnqBN8Vz40Ws8Lc6wAXgNQBiVsHCGeHx2BWmD0f4AGQOiCB64BRuDnoZ4TY8wE5AFIHJG4dAM8OexXjfrk4cz4gD0DqgASuA8ZgOiCmfEABgNQBiVsHiAkB//hwDPkAH4DUAclbB+SiwbHi2eF48gFFAFIHJG4dIJ4bLN0hwpwPKAGQOiCJ6wBQIjIWQz5AACB1QPLWAeLZYfF2eb58gAhA6oDkrQPAztBoqUKELR8AAEgdkMx1gHyXGGc+AAKQOiCB6wC0QoQtHyABkDogcesAtVaYNR8gA5A6IIHrAMwBXPkABYDUAYlbB4gOALEARz5ABSB1QELXAWPCraJ8+QAEgNQByVwHjI4Wq4MY8wHO9koQcDs6IPZ1gFInyJIPcLZXhIDb0AHx1weMjeZOjop7g9HzAS4AqQOqYx0gXC1e3BuMng/wAEgdUA3rAHRvMHo+IAdA6oBqWQfkVwJCw8nI+YA8AKkDqmMdEEM+oABA6oDqWAcgOcGI+QAfgNQB1bAOEJYBo0z1AUUAUgdUxzoAOTcYKR9QAiB1QDWsA4r1AWPCzdJR8gECAKkDqmcd8K5yaixsPkAEIHVAdawDhHxA9PoAAEDqgCpbBwh3iITNB0AAUgdUxToAtheIlg9w/qnyBNyODijXeYExv1AsbD7AmUgAAYlwwD1XW69NiTR+67cX/P6Hy7IOQGuFw+UDnIkkEJAAB3x1YSYbfWQyf/CH5VkHwDtEwucDXACSQEClHXDPI7UM058bc8qyDhDvECkVCoXIB3gAJIGASjvgGtf8Z7N/9HvlyweMFXeGRkPmA3IAJIGAyjrgj/nmP/vb5cwH+M+A4h0i1HxAHoAkEFBRB8xlBCD7wfLlA0CrsVD5gAIASSCggg64+/c5Afjws+EIYIsFKPkAH4AkEFBBB/wJJwB/XN59gWj1AUUAkkBA5RwQGwDl7jdIzgeUAEgCARVzQHwGKOM6YDRMPkAAIAkEVMoBMQIQ/75ApPsDRACSQECFHBAnAOW9V5haHwAASAIBlXFArACU817hUWp9AAQgCQRUxAEAgP9E3xv8g0ADlPVeYWI+QAIgCQRUwgEWAAQSAAGo6L3CxHyAMy95BFTAARAAen2ABEAS7hW2zAc48xJIQPkdIAFAJkAGoIL3ChPzAS4ACSSg7A6AANBrhBQAKnevMLE+wAMggQSU2wESAGQCVAAqcq9wMSVknw/IAZBAAsrsABkAKgEAgA8/W9H7A8ZI5wXyACSQgPI6QAGASAAEoHL3B8jrAHM+oABAAgkoqwNUAGgESAZgqRbnyQma8gE+AAkkoJwOQAAgESAZgIeACGeG4NnhoHxAEYAEElBGB2AAUAiAAPw0AecFbPMBJQASSED5HIACQCBAMoA3KrIO8I8Oi2eHg/MBAgAJJKBsDsABsCdAMoCrgMqfGyzGAoH5ABGABBJQLgdoALAmQNoM+scAB5Tr3OB4IRw05AMAAAkkoEwO0AFgSwDyCEjGOsB0XkACIIEElMcBAICvKucGjQSgAFTwPkG156guHyABkEACyuIACMDH7qYSoAGgCvoLyAAkkIByOAACQD89rgGggvcJ2tYHOB9KPgFlcIAMAJUALQCVvlfYmA9wPlQFBMTvAAUAIgF/ogOgcvkANCeo5gOc+dVAQOwOUAGgERAAQKXyAYV7hU33CTrzq4KAuB2AAEAh4B8DAKhs3+Ex032CLgBVQUDMDsAAoBAQCECl1wGlnCCSD3Dmz6sOAuJ1AAqAPQHBBkhAfwF9fYBngOogIFYH4ADYE2AAoIL5gHfHwDpAyQd4AKQOeOhRHABbAgIN8NOffvDxPzKO/xw8Hv9g6P4CsM+QnA/IG6A6CIjRAToAbAkIAuCRExz3j538kw+Gc4B8p6iUD8gDcMc7AAJAvlEyyAAf7mOYfm8s/GDIXmPF7vNYPsA3QHUQEJsDJADIBOgB+MMbTPOfzS74j6h7g0g+wAfgDneADACVAC0Av8d4/VTmcaZ7hMR8QMkA1UFATA5QACASoDfAb/EBkP2D/4hcH6DkA0oA3NEOUAGgEaAHYAUjANf+X/T6ADkfIBqgOgiIxQEIACQCIADikRHG+c/+9n8w1AhJ+QARgDvYARgAFALKBEDkGqFxpT4AGqA6CIjBARAAen8BCMCv3BMrABEcMCbGArl8AATgjnWABACZAMkAwpmhWACIUCss1gd4CpANUB0EsDsAXBX7VePd4goBCgD3xGwAtjNDMgB3qAMUAIgEqADcE/MjIEIsUOwvMI4aoDoIYHaACgCNAASAe1QAbpj3hJSdIQ0AIfcGS0dGRgvRoArAHekAAMBNc38BmQAMgHsUAKaUNgjxChFkdxgAwFcrXDwvgBmgOghgdQAEgN5rDAXgHi0AmvqATyM1QhAAlhqhMT8a8J4CGAB3oAMkAMgE4ADcowOA4AAJAJ4aobFSPgA3QHUQwOgAGQAqAfBsoXhmSAOAtQNkAJjODBVjARyAO84BCgBEAnQA3KMDwNoBCgBc64B8PkADQJIdcMuZhIyVpvF0aTwyWSFABYBGgHTVrECAFgBLB6gARHaAUCLkGuAlfPqT6oBD6xgKbDILmiQCEABIBMh3DVsAYOkABADGc4OuAV7SEJBMB0xiqq/JzIUEYABQCFAum7YBwMoBGABcd4mN5gygIyCJDjjEV191FRCAAkAgQL1t3AIAKwegALA4oGiAKnLAerb5z/ZNFgnAAbAnALlu3gYACwfgAPDcITJWMEDVOGAvV4GtNx4XV4JgN/Bp+eywmQCs34AFABYO0ADAco/Qu74BqsUBDuP8Zx8Q8wEQgA+QCUAbTtgAYHSADgCue4Sc3w0iIGEO2MQJwKNiPgACQO8+j3ccsQDA6AAtAAw5wXfH3n3X+d1AApLlgEm8AAg5QQkAMgGaljM2ABgcoAeAxQEeANXjAGYAhJygDACVAF3PIQsADA4IACD6OiBvgOpxALcBSg5QACASoG06ZQNAoAOCAGBwQB6AanEAvwF8B6gA0AjQdx2zACDQAYEARHdAAYAqcQArAL8v7g0iAJAIiAhAgAPEz/+WAkDUfoOjowUAqsMBAICpm6UxzTjmQACEvUEMAAoBEQEIcAAAIIY7RJzpFgQkxQEAgM379+/dv9cvDXC/zLvDKyEAQn0ACgCBAEsAkJ6jJgdAAPh7jjrTbQhIhgOOywDA+oB2DQF+gUj7DAkAoT4AB8CeAFsA9AToHCABwO4AF4DqcQBIBG22rxHyQVAAKDpAA4A1AdYAkB0gA8DtAA+AanHAMQkA6xqhggFUAIoK0AFgS4A9AFQHKAAwOyAHQLU4QAaA5gDEAL4DurQAWBJAAIDoABUAXgfkAagOBygGoDlAb4DuAADsCKAAQHMAACCG+wQLAFSHA1QAKA5ADZB3QBAAVgSQACA5AALAf5+gD0A1OGAmAgDBASENYEUADQCKAyQA2B1QBKAaHIABQDkvoF0EBgNgQYDUft4EAMEBMgDcDigBkHwHoAagnBfQ5gEkAMjd52UA7jYBYO8ABQBmBwgAJN8BOAD2DrA1ALn7vNx4UiBAA4C1A1QAeB3gPEgjoJIO0BjA3gF6AEBR6NPK6XEjAXLbuRIBAABd9/kAByAAsDrAeZBIQCUdMEsDgK0D9AA0XfXHokWLXlPvDzARoPQdLBIAAbAiADgAA4DTAS4AVeOAY1oALB0AAJgGzwt2+1nh72D3B5gIUBtP+gRIAJAdAACIob+AB0DVOEAPgJ0DggAQN4fpBCCdRwsEyABQHQAB4O8xkgOgShwQYAA7B0AA8NPjYXqP4+3n8wQoABAdAAHg7zGSB6BKHAABoN8fIAGAnh7vDuUAtPdwjgAVAJoDJAOwO6AAQFU4QDIA/f4ACAB+gwR4DFgTgDef9ghAACA5QDYAtwN8AKrCATIAVAdsOiWMxfgNEt2hHKDpPu4SgAFAcYAMALcDigBUgwMUAMLdIeKXByAEHJSXgpYE6NrP3303CgDBAaoBeB1QAqAKHKACEPYeoQIGiAO6QzlAB8BdGgDsHaACwOsAAYDkOwABILwDcv+Dp/e43H1cPDOkAcDaAZgBOB0gApB4B2AAhHZADgKe3uMyAB+72wyArQMwABgd8CUAQNIdgAIQ1gH+/8PiALnxpAUAlg7ADcDlgFEJgIQ7AAcg/H2C7Uy9xz+gAPA+CwDsCMABYHPAl5zvRiGgzA7QABD6PsF8KMDhgNe/KozviWeGAgCwIOBZDQBcDnAN8N1IBJTXARCA6HeK+hFhdAe8T3tmKAgAGwfoAGBygAdA9ThAAiDynaJd/v/CFAtgBAQCYEEA+PyzzzI7IGeA6nGADECle43ZEBAMgJkAPQA8DsgBUC0OUACoeL9BMwEGAIwEBBmAwwF5AKrEASoAyXeACQATAUEAcDigAAC7A/rrT5/RjTfk/z8+BpbIBCAAJN4BRgAMBAQbILoDfAB4HXC253A2+sj0HoIEYADwOuDIpqOL5k6bs+CvLlxorq2tvXhh4akTvesWb2ja2B2SADMAwQSAz1v1GKE5oAgApwNaLjFMvzeaLwMCUACYHNC9csP6K836f8rhqa3vHN1IJwBMoK77fAABEAC7PkMUB5QAYHTAINP8Z7MXGkQCcACiO2Dp0QeunbT699xoXfb0HhIBYAJ13ecDCACfN94tTneA8yYPAYID5tdHnXZhnBPXARoAIjlgxs25pzKkf1Jf64bX7AkQPzlF130+gADweePd4nQHOG8yESA44InQ062Ot8RYQAdAaAd0NT0Z7v7pU++8bkmA+Kkpuu7zAQSAzxvvFqc7wAWA2wFDV0L9TvFxfrYNAOEccHNalNvHry17zYYA8SNT7qITAD5vvFuc7gAPAG4H/EOEX6syxHyAHgC6AxqvTon6TzvZevQhIwHiB6bcRScAfF5zk1QUB+QAYHYAMwCzNQBE6TW26Um7RZ9hZBYum2wgQHz7lLvoBIDPP0vpOWrngDwAvA7gBmC2BoDQ/QZvDtKWfUHj/ObXAwkQ3zvlLjoB4POknqN2DigAwOoAdgBmawAIRUD78Nuc/75s5uTm1wIIEN865S46AeDz3n9gdoAPAKcD+AGYrQEgBAFN1zj/dfnhIrBHR4D4Ph8ACgHg895/YHZAEQBGB8QAwGwNAFQCNnFGKML48TuTNQSI7yoCQCAAfD7/n1gdUAKAzwEAAO2WkG6n6I03LoqfF/cGEQBIBDRutn7219beuHDhQl+t9VrxwpY/RwnAAbAnAAGA1QECAFwEwDWAaXe4zvuC4y0MgNkaAOwJ2Luv1jiNzVemLd5yc9PSruLe4JGNK48ueqD1bfPu1pXXMQI0AFgTgADA6gARAC4CEABI9QE4ALM1ANgScHlB8PzdaF3WtLSwPYjsDnc/8vj6a8EUnHznYyoB4hvevotOAAoAowMAAEwEYABQCNAAMFsDgBUBt7YGybyvd4NT2hvWnRrr6j7SFLxx8PbTCgHgZV33+QACUAAYHQAB4CEABYBAgA6A2RoALAhwAv78Lzxwc4ZUINCOnhnKQ7B0w6BeBCeX7ZEIgADQCdAAwOYACQAWAnAA7AkAADymBYDQcXLLed2MNa+/2X5Lnv4uzZmh3P0B3V0Hl15doPXAlY2QAAkAMgEaANgcIAPAQYAGAGsCIACPaQGwJeDWk5rJylzZMkN/tzjugMIlMq8/oCse6TsKCHhbGL130wnQAsDkAAUABgJ0ANgSIAFQIuAyAMC219g28P1K4+STlwPvFscdUERgz5ZT+PftmLsnsEaIRoAWAB4HIABEJ0ALgCUBMgCPaQCwI2AAD/5qFzfe8loNEc8M5abfvz+gSbOymPO9PWwEBADA4gAEgMgE6AGwI0AB4DENADYEbOjApmhFz5HAOsGgM0Ole4S6v6NB4DOvszkgAAAWB2AARCUgAAArAlQACgTslAEwd5npwebn8PpGUq2wikDpDpGjn8F+wo2nuQgIBIDBASgAEQkIAsCGAACAeGJEBcBAwK1WbHZOXLauFdatA3wHHDz4nT3LsGfMj48yERAIAIMDcACiEQAACHFmCAIgEIAAEEhA2y5kai4ORz0zJN8jtPRJJCg8/DgPAQYAIjtAA0AkAiAAdAIkAEoEYAAEELAEeUBndh+J4cxQ00LkJ11lIcAAQGQHOJ/lJwAAEOLcoAxAkQAUAC0BS5Aw7WInXiMU9dzg5M0IAYs4CDACENEBzmf5CYAA0AlQAPAJwAHQENCGFP70tgXUCRYIaFx5dNkDj865suDUqVNXvHNhV5s2dhsd8J2jamKIhQAjABEd4HyOn4DPQwDIBKgAFAjQAIAS0PYFZUJWbAmoE/QAOLSq58QNFRv3gf72k8tWdgc6oPs1tdYksyE6ARYARHKA8zl+AiAA9PsDEADqggyAEXBLnY6Fm4IqRduOrpuKzb3Az5VlmwIc0N39gPKRji2RCbAAIJIDXADYCZANQCUAA6BOMcC6mgACZrYqkzHYpq8Ubdsyx670Z+HclXoHdB9V9pxONkUlwAqACA7wAOAmQAaA6gAUgDrZAOuC7hRV8z/r9+vqBP+0/tEVVrOfH59ZtlTrgJXKA6T5kYgEWAEQwQE5AJgJUA1AIwAHoE42QMCNkvvkecic09UJzthAPst+8slJOgdsVI4bLXwt2r4AAIDce9zsgDwAvASoANAcoAGgTjaAloBOOTFzeJWmTvDI1oArAfQjc6JJ44DJSu7h2sciOQACQO09bnZAAQBWAjADUAjQAVCnAIATcEg+87liAK8TbNsa/nTolZu4AyYrlyOs+/MoBEgAsDvAB4CTAAwAigPsDPCc7i6xBjkBtKITrRPcvwUN+axH70bUAXta5Tdu0J4ctSBABoDbAUUAGAnADWBPgJ0BntPdJTZNmf/7sDrBTR+PNP3eN168B3PAnjny+56OQIACALMDSgDwEYADYO8AigFUAlZJv/7Dw1id4K3FHNdYLWxCHXACviszdXJ4AsRvNOWeYALCOMD5BD8BOgPYEkAygEzANmlzNrMKqxO8bEj62I7MA91Ij5HJ8vnDzX8emgDx2/i9hzkd4HyCnwAdALYOoBkAEnBczgCeQ6rE9m+hBP7B49RGxAFL5d3Bo7rT40YCxO9SbD7N6AAXAHYC9AawI4BoAEDAVuk3vx6pEmvTVQnnxvlTT76zZeUmp7GtvXHpxpVNV9cPXgg6DNJ3FHHA61J02fxaWAJQABgd4ALwWW4C9ADYOYAMQImAbVJGd3CmWicYoP/m3qsOVh9wpKnnWofuQ95jQHFAk7TEeFJ3f4CJABwAPgd4BuB2QJABbAgAAGy3AcAn4D6pBGhhm1on2Kk7JDJ18aa9Bw7c0tUHNB5t1e0XzDmiOmCR9J6jIQnQAMDmgBwAzA4IAsDGARCA7ToAkJul34C/9BWz1DrBYXwWa3c37TXWCDVuuII/DK4tVR0gPWcufC8cAQAAcu9xswPyBuB1QLABzARIAJQIaBFvlq6vUwhYIkUAz6h1gvvQGby4r82yx8ikXvQb/NVrigMm/xV8ywMPhSIAAkDtPW52QAEAVgcEA2B2gAyA7e3ys5+Dv/JetU5QXiPmxoVFt6x7jX25feM6zCEXNykOeAS+7+TroQiQAGB3gG8ATgeYDGAiQAHAkoCdHXBO2mpkAlYjU9e3oYFSJ+gOR071eePGRsUBy+A75jwUhgAZAG4HFAFgdIAJAJMDVADsCIAJuEx9jVwnqOwSu++a1qirEdKfG/zy8AX1Oy1U1wFSTqIpDAEKAMwOKBmAzwFmAwQTgABgQ0A9/HWvU+oEV6mP70uTAqrEAvoOH5mrZpJPTZb3BTbCfNO194UgQAWA1wECAGwOMAMQ7AAMADMBNXAn/kabXCdYrz67d4tlYrS+wytVCSzYIztAeggcfYhOAAIAqwNEA3A5wMYAQQSgABgJGIC/7OHZNZCAy0r8f34VLBOj9R1WN/6zvXJOsBvuTL9t322uSAAGAKcDAABMDgAAhOg1hgNgIKAG3gIwKFeJ3VLyf5ecKH2H3f+xTHmkLJL3BW7Ct2yhE4ACwOgA55OfYHcABIDea0wDQDABneA33bHzUxIBu+XJ2tWGV4lZnxlqbz8q7ymdXCnXB/SC1099gEwADgCfA5xPfpLdARIAZAfoAAgkAAr5+dlSnaCUI8xmW2+hVWKEc4MuAk3yweCFk6EDviOtA5sIPUfzQwMAmwNcANgdIANAdYAWgAACdgDXrljyMKwTvCz/rU5rwKrEiL3H29s3yVVlrXKNEDwtMvgQlQAdAFwO8ADgdoACANEBegD0BMA6sDVSlViDfIvDOoZeY95j4L9ukquKr0o1QkvB2rPjEUrf4UAAmByQA4DZASoANAcAAOx6jraAv/DalochAWukWZpzjKHXWH6slNzSt/QgjAXmgpfXm3uMQAL0APA4IA8ArwMAACH6DgMA7LrOwhzfaqlO8HIHnKQrDUiVGNkB+aPjM+Sd/0elWuHJQAF9HyP1Hg/uPMrhAOfPVAKiOgACQO87DAGwIgCc7jm5BNYJHgf/IDf+a1OrxEI7oKt9A/zumZvSeYH14OXHad3ngzuPMjjA+TOEgIgOkAAgO0ACwEzAWnCDZHazVCf4DJyh89vUKrHwDnDHOvj9p3RDB2zsEF9dQOs+b2g9G90BLgDsDpABoDpABsBMANgHzuyAdYINoP9ANrtKrRKL4AAXAinfl10mnRkCuYDMxodIBAQDEN0BHgDcDlAAIDpAAcBEQA1Yil+BdYL3nYPTs06tEoviAG848IRZ3+Qu0QEP3YR4kLrPG5tPR3WA8wJOQBQHqADQHKACYCCgHvyGV60FBDTA2bnUoFSJRcwHuF9bIGOLpbPDIAi9todEgAmAqA5wXtAQEMEBCAAkByAABBMAbmjqmwnrBGERUGZS6G5zQXeJwTxkraiALnlT0G86a0eAEYCIDnABYHcAAIDeexwFIIiAx8AToOcnoE5wJszVhew1ZnKAlPFdBu8PeK0DvEjpPm8BQDQHuAB8gtsBEABi73EdAAEEwNCQgdkAACAASURBVBhgFqwUhZsAfUvUOkEWBywGP+YGuFCq6yCoVbpC6T4vtZ8PT4DOAZ4BuB0gAUB2AA6AngAg+YtikZhLALz/4w25SozLAd3wMNiWLuCAq+JrJydTCIAARCBA44AcAMwOkAGgOgDcMzhhJgBcCNcD6gRhm6Hs1Jn3RSNA64AZcB24ABigaykoRjraTSAAAEDvPm90QN4AvA5QACA6QAeAhoAWsBFYXwcIgGUAvgBicABUQMY/Mpp3QBcoD938EIEACEAkAlAHFABgdYAKAM0BWgBQAkZAKUhtDagUbQCLs4szCX2GqA6AGeG5ogC6u0AcMKW7254ACQB2B/gG4HQAAgDJAXoAUALAVl8vrBSFt0Xss+0yE8YB3SDhuLC0AvQMsEl8LbOUQIAMALcDigAwOgADgOKAAAAwAsCB0GdgpWir+Fptg2WXmVAOmAGj/ZVQASIdmaPd9gQoADA7oGQAPgegABAcABtOmAg4Cyx/HVSKwifAOlglxu2ApR3iDxOeAV6HCXBUdG63PQEqALwOEABgcwAOgL0DpI4jBgLAkeHm/O5wgYDHYKn4rBomAjQOAOnAU2IeoKv7qvjaiW57AhAAWB0gGoDLARoArB0gt5wJJuC0+O7WOkDAE+JrC0GVWAwOAJFgxgGB4CPiazcO2hOAAcDpAAAAkwMAAMS+w54DlJ5DgQSAa4HP1QECwFmArTV8BKAOOAJqhB8HAPwzeG2pPQEoAIwOgAbgcQAEgNp7HGs6FUQASLPWPyYSADMEO2sYCUAd0Cr+uGkwFwQOrjUdtCYAB4DPAc7PXmB3gAQAlQB5DWAgAGz2LCluEHkDLAGaYZ1gHA64Kv68S3A7AOxYLjpoTYAGADYHOD/7GbsDZACoBGBt57QEnBX/ypuFLUJ3wAxBDS8BiAM2ij8v0wgIAHCsP2hNgPixt+9iIkBwgAsAuwMUAIgEoH0HdQRcF998pQ4QAC5yeCOovwCPA2aAXNBNAECT+FLrQWsCAAD07vNGB3gAcDtABYBGAN54UkNAvfjmzSOAADAf2wL6C3A5AET7V0GnKQfM5EFrAiAAbAQUHZADgNkBCAAkAjSdR3EC3hPfvBUUCrWIL52vmc1OgOIAcDfcOthtTtwQ7DtoTYAEALsD8gDwOgADgEKArvUsSsBqcQ1wGgAAUkRvgUrRmBwAPD8I+w2C3cKP/bMtATIA3A4oAMDqABQAAgHa3sMYAc+Lb64X538tCAJ2z46DAMkBwPNTYc9RsCO88aCtAxQAmB3gA8DpABwAewL0zacRAsCG/w5gAFAPvnV2LARIDhD3HlbAnqOt4r9m5UFbAlQAeB1QBIDRARoArAkI6D6uEgD+sJYAAEAUODw7HgKgA0DPqCPtogNAIqDpoC0BCACsDigBwOcAHQC2BAS1n1cIAAWEPwEAgF95fV1MBAAHgP2gjd65kSIB4JTwli5bAjAAOB0gAMDmAC0AlgQEASATsF0s+lwBzwu0Ci9ldoJa4bgcIP7I7Mp2kQBQLrChC9wrHEAACgCjA0QAuBygB8COANh+3kCAuLiuhecFwC7B9dmxESA44FHxRzZ5819cB4AQ8ap0t7ieABwAPgIAAEwOAADQu89LABgIEJM9N7YDAkCpUMvs+AgoOQAcBW8qnB3ME3BVfCl/nZgNARoAmAh4VgKAxwEQADoBsP28gQDxVNDF7YAA8O9oQG6X53cAeNAfndFeuFrWIwAUjS5T+gvoCAAA0LvPGx3g/DyAgJAOkAAgEwABMBAgAnBhOyAArA9r5LvFY3EAOCB0tHiloEfA4xCALksHQAD4CXB+HkRAOAfIAFAJkG8aDSRA3A2+sR0QALbgW5Tb5eNwAKhOGe5q9y+ScQkABliE9BvECZAAYCfABYDdAQoARAIgAIa7xcUre5vFavG6EZgiUPsLxOAAGOwXDeA54Kr4knyXmJ4AGQBuAjwAuB2gAkAjQL1rOIAAserrPDgvUAeC8h1Ihwl+B4DtwJszigZwHQCigA1o32GMAAUAZgJyADA7AAGARIAMQKADxDxAxwggAGSJd2I9RtgdACoQNoFqkXfEl7aIxUKBBKgA8BKQB4DXARgAFAKw28a1BIBYrx+cGAEP5PqfxE6A6wDwr1man/m8AdrBlaFHczNv4wAEAFYCCgCwOgAFgECACkCAA1rFN18XT4yMgGPjb+B9hpgdIC5JM13C338XLBaB1UJBBAAA6N3njQT4AHA6AAfAngC834CGALDseko8MVJ3RnypZ20ZCDgiFifcEGa/S94mKMy82QEQAH4CigAwOgCc16d3n0cB0DoAbPkNiPXi8O6oQe+hEDcBk8SfeK0dGADcJXekq8vSARIA7ASUAOBzAASAToCu4whKANj03zchEnBd/Hu8UFcGAsDZoF4w/+1ixup8aeZNDpAB4CbA+RcrAkgOkAAgE4ADgDtgaFh8c484/9sfE8szMv1lIABkgheDIAA8HRZ2KUNHgAIAMwHOv9gRQHGADACVAH3PIYSAp8AfHQAA1grU/yR+AkDucRUAANwQcEKc+WAHqADwEuACwO4ABQAiAToAUAeA0t9L8NQYWCCuKSSIYySgDVwc7gAAjoovrVMNoHMAAIDefd5IgAcAtwNUAGgEBHUdUwiYED1/eC0gAFwR91Zd7ASAKtRaMP9wm2gZnPkgB0AA+AnIAcDsAAQAEgF6ADAH/EJ89w5wbhDUhWdaYicAZJ4GIQCt4mvDmAFwB0gAsBOQB4DXARgAFAKC+w7KBICE7+kJkYC1oFfDcF3cBIBI7x14bhCcVN8oz7zeATIA3AQUAGB1AAoAgYAgAFQHgDiwZwIQAFLzvXXxEvCnl8Wflr0Jzgw1ikHA+a4vowbAHKAAwEyADwCnA3AA7AkwdR6FBNSL735rAhAAOsl0tDwWLwEgCKy9Bc4MgWj1CjwzFOgAFQBeApx/JRFg5QANANYEBAMgOWAChAEd/YAAcHQ4+15drA7YC86i9sITIwCOB9pVAnQOQABgJcD5VxoBNg7QAWBLgLn3MHAAOHRXPw8QAJ68X6iLlQDYu3QLPDO0C77WZe0ADABOAlwA2B2gBcCSABMAkgPAKnBN8cSINyZWg0nZGSsBreKPOnkEnBc4Ai4L3uj9J0sHoAAwEuABwO0APQB2BNh0HxcIAJt+b00AAuAzoHckRgIugwuJWg+A8wLgxtIbQq2w0QE4AHwE5ABgdkAAAFYEmAEADvio+PbMckgAiMwy1+tiI+AAvJZ6lVgr3N4OcpKPCrXCRgdoAGAjIA8ArwOCALAhwMYAAgGgMjx7ZgIQAO6PyE4biY0Ap0P8Qc0z2g+IDhBLV90lQKlW2OgAAAC9+7yRgAIArA4IBMCCANh6Fp9+wQFDoG/w4IRIwEg/uCz2MFQAJwGwefEDoFb41krxtcxSoVbY6AAIAD8BPgCcDggGwEyA1HvY6AAQY3e0AAK2g5aC2daRmAiYBFYAGWevWCu8F5wYm9Iu1AobHSABwE5AEQBGBxgAMBIgN582OGCoH/zyS8+AHAGgKiSbHaiLhYD91yBnsFa4HWQIQJ2A0QEyANwElADgc4AJABMBSvdxgwOGQJC9awISANLB2Qv9sRAAm1dnV+4tEeA6AGYIJuVm3tYBCgDMBAgAsDnACICBALX9vMEBYKWXuQ4JABUjpbIAVgIaYXPKK8L8ew4ABcFT4S6hyQEqALwEiABwOcAMQDABKgAGB8A7gddMQAKgAjpmreUnAP6IbKdUKwwWonP9mbdzAAIAKwEAABYHfO4TvzQDEEgA7Dxqulv8Q/IzoG8EErATrgJutHA74IDUnXhQqhUGh8IKTwBrB2AAcBIAAeBxAACA3n1e7j5u4QCQDMwVBYgEwAgtOygrICoBMALIHr58ABBwC2xWTBFm3sYBKACMBDj/FoEAjQMgAHQC5N7DRgcMwWj/EgRgYjns6+o3FWAi4Hij1J5+rlQpChtXLVIEEOwAHAA+Apx/i0IA7gAAAL37vAKAhQPgH3m9RICk6MzwCCMBtxbA736hTaoVBhHiyUYw82YHaABgI8D590gEoA6AANAJULuPmxwwHy71d0n3CI3A/rHZFfV8DmiQFoDZYVgneADGgL2YAAIcoAWAiwDn36MRgDlAAoBMANJ+3ugAOMX1EgHSOjB7ficXATOlBUZ2zrEDkAAoiE555g0O6NICwESACwC7A2QAqAQgAJgcMA+0jsp+Qb5LDBwUdkfzNh4CjvXI3/iQVCkK7o/OnsJ7j2sd0B0AAA8BHgDcDlAAIBIAu45ZEOCOEdA5JtspEQCvi3FH3yyOdUCD/PefGZDqBPd+HLy+Be89rndAEAAsBOQAYHaACgCNAKntnJ0D4N/41BGJgBYIiLsO6IzugIZW6Zu6EYBUKQqbil+cgfcd1jog0AAsBOQB4HUAAgCJALnvoJUDYCSY3TchEVAvLQOymdNRCVgirf+z2QV7pTrBNhgiLtL1Htc4oEsyAKHfoC0BBQBYHYABQCFAaTxpRQC4KCDb1zIPEjAPlgd647mzkQiYdFH+hsUFQJGAxfANc9p0vcc1DjgoAcBPgPMyBwHQASgABALUzqM2BPSDY0DZaUMSAbCzQG5c2hGegJnnDsvfbkW9XCfoyO+51kh1gAQAOwHOyywEAAfgANgTgLSetSFA+hOvnycRsPZEVh7nlceALQFLBpVv1jEs1wnuV54R2c84RAfIAHAT4Lz8r+wOAADQu8+jvYctCOiHe7ILz05IBPSD+wLyY/B6GAKO7+tTvlPmDaVOcIP687I3NtEcoADATIBrAHYHQADoBKDNp80EDMEC0Ozz82QHtEzNKmPF6n4yAbMQkrJblTpB5zzytmztTZIDVAB4CfAMwO0ACQAyAXj3cTMBE9L8dk7IBCxR1m3uuHD6LImAbdPkgMIbPUqd4N5ryNvccXJVO8EBCACsBOQMwOwACQBi73EdAGYChurhb7p5ueKA5dKuQAGBff3WBOzY3YF8h8xqtU5QDTv8N18lOAADgJMAFwBPAawOkA1AdYAGAAsHtMLf9IkJhYD+XVls3Di3xIaA452t2F9/tuONv1bqBDsxUApjsf06AAWAkYC8AZgIKDhAAYDoANhyhkDA0HLpqbtmnkLAWXn3rjAyu870GwjYsfoC/tmTq9QqsW3N+Hvz49EZtg4QP3VKPjnKQEDhEcC6DlANQHOA1HOoBMDyrz1fGsMvzVchkNaBmQHVASPwpIAwzrfu26EjoGGgB316eKN5kloneOvjunfnRz4lZOEAAIB1rzF7ApyXC88ARgcgAJAcIDedKgIATgF+DXUAKEh153SH6oCJ01KFUHG4er+x+1zn9RpAQMusZ9Ys6NDP5a5DapXYsUf178+PBY12DhA/83aXba8xewJKBuBzAGYAigOUrmMoAM+jT4Hr0uTeWI4QsEP7x5wfhy+d6N39/NzVPc/1ztkVqHIXmjUzkTpBeQF4olb5YD4lZHSA+JFT1r3G7AkorgEYHYACQHCA2nZOA4BCwND8+bA+NJu9dBYh4Ky8jRt6NHciVWIzt0hLxYVtl+XdyGz24iYbB4ifeDu/P8BKgG8AzlgAN4C9A5C+gxoAVAcMzWuVfs+71iIETJw2/GFbjtZDNUid4LC0BXB4krsoVJNQfTctHCB+4JR1rzF7AooAMMYCGgCsHYA1ntQAgBDQL/+tDY5gBPQ/gQZ0pHFhAK0T7DwpvW/RsWMHjh1R80IrVpkdIL7/bX+PkJEAEQCuWEBnAFsHoJ1HNQAgBDwlb8H1ogRM7MQSuoRxcnUDWidY/2PpjYMNucRQmxqA5lNCgQ4Q3543AK8DnJfBM4DFAVoALB2At55VANDlA+Q9AVfU6FNgou499cFsP+Zsw+sEO+UYY2qjnxtGVh6LTQ4Q33yqVCfARoBsAA4HAADIvcff1ADwoAKANiMELmTxxi5sJTgx8U9n94VFYEG9pk5wQJ7/85dL24NybWq2kBIKcID43lMHbXuN2RMgrQFYHAABoPYe1zefVgDQEDA0AnqPeuOXLTgB2/vfWyi/1zwyvbM0VWJfeUZ+/nSUykTdlcA+deGRSwnpHSC+tWQAPgc4rygKiEyABADZAdru4woAOge0KDnbqdc1BGxfOzBIWw7eWHNdVyU2c7Xyrfb9L1AjtEpeIBZSQloHKAAwO8B5BRLAEQvIAFAdQAAAJ2Bo/keUxEvfUzoCJkaWbDVkhkpjRe/wTG2dYINadbZerhLrVFNCl5YGOEABgNkBLgAyAZHXAQoARAdQANA5QAkFsoffU/cFJop3iu7Y+gWzB5p3r2oJqBM8pOb/dx/7ikzAJiQldLld6wAEAFYHeAC8AiY/eiygAkBzAGw7pwPga4F7g0OdCgHZ3WsDCNi+vWW455QegubWc7NqAusE69XcUut+uUrs2LGvOJqUENUAPA7IAfCKbIBoDgAAkHuPK30HdQAE7w4PDauTeWlHIAEjI9vP7nymp/US2FTOXNw1bevAocd+ElwniDz+s4MNcpVYbjQiKaFhnQNQABgdkAcAOiBqLAABoPYeVxtP6gAIJuCl0+qMrNinVIlNgB4jI97/qavrX7Kjvr5+oL5+1vWWtVZ1gtu+oPyw7JVbcpVYYbQhJcUbNA5AAWB0gPOqQkDkWEACgOwApfOoDoBAAobmn1afAtnBJXKtMCTAG15BgIvBiE2NUJ6A428g9Z9zGmYqdYKFcUtNCWUW47GABgA2BzivYgREiwVkAKgOUFvP6gAwOEBJyrtjxdYRKwIo1eLb5KOn3uhtUKrESkM+MuQNLyVENUB0BzivvowTEGEdAAAg9x5Hew/rADCsA+qx0o9fPMVLQMNqhLPs5plKlRggYJH6gGptQwjQAsDkANcAiAOixQIQAGrvcbz5tA4AgwN2YqnezO7lfAQ8fBorNc+e36ZUiUkEICmhXUdUAqYJYzFigKgO8AyAOyB8LCABQHYA2n1cB4BhHbAcOQviPgfW9DMR0Pl57Pu748ZlAwEHNCkhPBpsR0+OMjggZwDUAeFjAQkAYu9xXft5HQCGp0C/eiLQGz/e2s9AQD1eZJ4btfUmB6ApIZUAPyls32eIQoALgKcA1lhANgDVATgA39UBYKgWH0ICdG+c71kyLxIBNQPq2U9x+MXiegKQlFDtTa0D7PsMUQgoGIA1FlAAIDoAXjVbIuBNDQAmAgbQM3reWuCp8AS07DNuI2b2mQhoVGtSVgzrHIA9BaI7IAeAzgEhYwHVADQHSHcNlwjQAWAi4DpoLyuOS/tawhBQU78bW/krY/FMAwGalJDGAHE4oGgAxlgAAYDkAPmyaY0B7M8MDU1oHgNZ70SQwIAdATtWW9cQTGswEKBJCWGTj68EozqgAIDWAWFiAcwAFAcot43jBtB1n8dqhIbqA0p/Dp/Yd92WgP6B5zTnw/Ax55aBgP3yRXPuWNeOOcC+zxCFAMEAbLEACgDBAep187gBKAS8ZKgCvjjtzI7tBgJaOlfvCjT/wq1q4unzbSYC8JSQOv26aDCaA4oAMMYCuAHsHYD0G8ANQCFg/vyn0JSAMM7veuLMrCUYAf07Blb3mj5+cnVDTb16c8hnDpkI2KLuWew6QrxPMLQDgAGYYgENANYOwBpO4AYgETA0gvyBqqNj6pXeJ1afe++908Nnzuw71zNtzltWh0hObKupqfnUDjUvePGyiYBONUy5tJR4p2hYBwgAsMUCOgPYOgDtOIIbgEbA/OW7Lcv/yIdGLq7Kbwzcd0itLqut/2sDAZNUxC5cLo8DJAOwxAJaACwdgLecwQ1Aewq4z4GA3F340byvobg12Kamh1YMmxzgqHFF38qyOAAAwBQL6A1g5wBNzyHcAKRYIIcAtncbaZxf01Aj7A439CrvyGwwEYBWCZXDAYoBGGIBAAC59/jndAC8iRuA6gA3JGS1QO3qFqk+4LhyMCWbXW0ioE3ds+jYUAYHOH/zqo0DSLEABIDaezyg76AGACoB84Z2TOvgmHt3TN3XgFSInFPfWEgJ6QnAU0KxO8D5m7+xcAAtFpAAIDtAC8BHxBcEAKgEuOMjaxjOh2fm1NcIe4MCAcgJoFYTAXuRlNB6rQK4HOACYOcAQiwgA0B1AB0AOgEf+tAE9USQPKauvq6tEvvUMFLu0WYgYP8i9Yf0tsXsAA8AGwdQYgEFAKIDdAA8qAeASIDXY2Te0FD/6dAM3Hh+1trAOsF6pNzjkIkAtEooXgfkALB0gG0soAJAc0AIA4RywLx58+ctf2+OTXZImsme+rV1aw2VotilMM5MAwHIzvXbS2/F6YA8AHYOsI0FEABIDrA0gK77vK0DCt3nh0bqe97qsJ78G7tPl+6UDCTgEHICaJLJAUhK6OLGOB1QAIA1FsAAoDjA0gC67vMkB3gEDM2bd7Z+a6txj7fvRM9p6XLxQAKWILH9wDEDAUhKqHlljA7wAeCMBVAACA6wNUA0AkoOcBlwHwZD8/qfOrNm9+eR6KD5rdbnzw0swfaHAwj4VE0DUu7xhskBh04pH/qx0myOzwFFABhjARwAewdYG4DLAcKYmJgYabn+1MDwmTPv7TtzeqC+fuf1syGqxQspIfW8eGariQAkJbRCJYDLASUA+GIBDQDWDiAAwOYAkYCJ7du5zgw9jFwZvt6wEtx7S80l126KywECAGyxgA4AWwdQAIjFAYynxrCUUO7QWJAD9q5XPjNVjQZ5HCACwBULaAGwcsDn4D2DJgDicQAjAdqUUAABSJXQtJj2BQAATLGAHgA7B8D28yYAEu8ApNzjVKOJAKVKKNMUz74ABIAnFgATSO49LgPwWRMASXfA7MtIlZBjegoo2FxCK0UjO8D5egABIWMBCAC197jcd1AgAADwje+yEFAOB2xDYvtJJgcoKSFy32ErBzhfDyIgXCwgAUB2gNR3sEQABEDXfT55DkCrhAZMBMgpoVPEvsN2DnABCOWAoFhABoDqALnxZJEACQAmAsrhgAY1tj/8jNpnCBJwaAr8xCRSz1FLB3gAhHFAUCygAEB0gNJ51CdABoBKQP/p4jhz+qmyOmCmmhLKnjM54BA8g/IAreeonQNyAIRxQEAsoAJAc4DaerZAgAIAkQBQUfREeR1wHCn36DlmIOAyCCGnEvsOWzkgDwDdAUGxAAIAyQFI7+E8ASoAJAKG4EWTZV4HPHxOTQntDrxHyB1zwdupfYdtHFAAgDUWwACgOABrPp0jAAGARIAWgLI44GHlIuls9kSbYV8ABIP5lqO8DvAB4IwFUAAIDkC7j3sEYAAQCNAboEwO6JRbSWSzH28MJgAsHRYf2MvugCIAjLEADoC9A/D28y4BKAAEAgINUA4CZql7zQu3HQsiYJX43kcPHGB3QAkAvlgATCC59/gnNQC4BOAA2BMQCEBZHLBNPVvePCvoJqnL4lsHDxxgd4AAAFssAAGg9h6Xew8LBGgAsCZAD8AT4is7huIjYIla7nG+M4CANvGdu1wAuB3g/K0dAZRYQAKA7ACp51CJAB0AtgTYAhCnA1rUKqHDq/QEHFEAYHaA87eWBBBiARkAqgPkplNmACwJCGEAfgKwo4P7tOsAR3zfYA4AXge4AERyABYLKAAQHSABUDozpAfAjoAwBuAnAEsJeVVCKAHyIpDdAR4AUR0gxwIqADQHqG3nzABYERDKAPwEPLxVTQl5RwcRAg6A2qC5BQA4HeB8054A21gAAYDkAAUA3wFBANgQEM4AMRCgSQmpBLSBK2dW+QAwOsD5JoEAy1gAA4DiAKzxpBkACwJCGsCCgNPPCWPJT4wEKN0Fs9lrS/5aJQCeFnT2HmB3gAtAZAfIsQCYQHLvcRSAvAOCATATILWeFQB4Xnzlo/R8wHPi53daOABNCSkOcEAm+OIBYXA5wAOAwQEgFoAAUHuP4wbIOcAAgJEAufewBoAd8+ZTCYAAzLYgALlNyrtgHBDQBm+S3SwCwOUAF4CvR3cAjAUkAMgOQAHwHGACwESA0nxaYwB6TlAxgJGA2dhtUgOAgEaYNMp07j/A74CcAVgcUIoFZACoDtA1nzYDYCBA7T6OG2CITAACgNEBbepNNZmeWyUCVkmO+Mz+/fv5HZADgMUBpVhAAYDoAA0An/2EGYBgApD287gByPsCGAAmAmoaWhUCsn2rL3uTP7Nti4LHhv0yARwOKBiANRZQAaARoG0/bwFAIAEIAC9hAMwj7w2iABgdMHOdSkA227xrcHBhh/Kfp+7drxDA4IACAAwOKMUCCAAkAiIBEESA1HpWIAA+Auh7gzgARgKOI/3kdWNVvkaI2wFFAzDGAhgAFAJg61ktALru83oC5N7DJQKgAYbyWiAQoAHA3HHyTIfl/Pf6VWLMDigCwBgLoAAQCJB6D2sBIBOgNJ8uEqAYgOgAHQBmAobtbqi52HgMJyCqAwQDsMUCOAD2BMjNpzUA6LrP6wlQu4/7BCBrAJIDtACYCUAuhVHHyUlCpSirAwQA2GIBDQDWBCjdxzUAkAlA2s8XCEAMQHKAHgBjLHDfTrTxIBiHh8U6QVYHAAPwxAJaAGwJUNvPawCgEoAAUCAAXQMQHBAAgNkBSEpIO//sDgAAsMQC2keANQEqAJ/UAEAkAF41K54ZQg1AcEAQAEYHPNzSGjj/fZ1yrTCjAyQDsKwD9ADYEQCbTwsEqADQCJC6jgkEaA1gSUAgAGYHzFzdoZ//a4eQEyNsDpAAYFkHgAmkd5+Xu4+XCEAAIBEgt50rESDvBVAdEAyAmYDjs9Ri0fw4v+8YemaIywGKARgcAAGgEyC3ny8SgAFAIUDpO1gkQAZgHtEBBgDMBNx3/BnsnsIVPY26U2NMDnD+9zfZHQAmkN59XgGgSAAKAIEAtfGkT4DWAJYOMAFgQcB9xwdapeuETp1r/MpM3ZkhHge4AMgERHcABIBOAOw4IhCAA2BPANJ5tEBAwBrAygEQgDBV7XeTVwAABqVJREFUYvd549Zwz66LuYLB2remvbHNcHKUwwFdzv9RCIjsAAkAMgFSy5kSARoArAnAWs9iAEjTb+EACYDQBHijoW3bkkLDURIBYRzQ7QKgEhDVATIAVALknkNFAiAAuu7zegLQ3sNmACwcIAMQiYD7jj98/HgIAsI4wAOA3QEKAEQCJABKZ4YkAMgE4M2nLQAwOkABICIBx0MRQHeAa4BvYQREc4AKAI0AtetYgQAZACoBmu7jNgYwEKACUBECqA5wh/MtlIBIDkAAIBGgAOA7QAYA7T2uJ+BNDQDTLQAwOAABoCoccNAF4JvsDgATSO8+j/YdzBGgGIDoAB0A020MEEgABkB1OMA1ALsDIAB0AhAAcg54QQWA5AC57ZxAgAUAgQ5AAagKB3gG4HYAmMCoo1gl4BLwEfPb7cfXxDNDX+P8zkUAqsEBOQMwOyAWAFwHvMANwINxA1AFDsgbgNcB8RjAdQA7AA/GDUDyHVAwAKsD4gHgky/wG6BIQGwAJN4BvgE4HRCXAeIA4MG4AUi6A4oGYHRAVQHwYNwAJNwBHgDcDuDszn5YBGA54zfOfkM4MTL9G5zfeUf0GyTK5wDBAEwOePlV5GLs0GOhcF7g20OM3zh7TjgxMh3p9x5+tDDcIVI2B+QBYHSA+39PM/4yvyGeGPn2Lxi/80en684MRRxvTXDcIlMuBwADsDjg5a+/qLZNDjsyy38mEPDtAbZvnL0i1ou/NJ3xsbVqIhkE2DnAB4DNAZ4F+P6e3nvx54AAtqdL8/IvigRMX95n/ozd2D0ykRACrBwgGSCyA17JPQU+yuOAFae/LVSL5wj4hnrDWpjxi4+A+XcJ+IjpdIbdyDw/IlSLV4EDSgDwrQNcBF48vfuXUUfve0Mv+htEQiSwelD/kS+g4/PS2PXcwPQ3lZOjLw0890v5nWD8g268VRyDaz76F2K1eKUJsHCAYgAGB3gIuG949X+op8cJe4M/f/HFF78NzgvkFPDzF38uVonBnqN2e4NfnP7FLyJnh6e/JNYImTpNzcP3BkvznwgCzA4QAWBywCsv5zICQXeIhKgUfQEOfe9xCwIefBA7OyzWBySj11g5HIAYIHos8HLuK+AOkcgEBPQeNxLwxQfffBA7O5zAfoNlcAAEgMcBr+RTgiF6jpbJAdOLNSKpA5y/xBQQ0QG5UAA7NWbqOVomB1RRz9HYHeD85V/G4AD/SaC7Q6TiDuAh4HZwgAtAHA4o5AOoPUdTB5TdAR4AcTlAsxJMSiyQOsA3QFwOeBV1QEJigdQBggHicgC552jqgLI7wPk+QgBXPkDjgDQWSJADnO9jBMTvgDQWSIgDXAAq4oA0FkiIA5zvf6syDkhjgWQ4wDNAJRyQxgIJcYBngAo5II0FkuCAvAEqsw5IY4EEOMADoHIOSGOBijvAN0AaC9yhDsgDUDEHpLFApR1QMkAaC9yRDvABSGOBO9QBogHSWOAOdEAJgDQWuCMdAA2QxgJ3nANEANJY4A50gGyANBa4wxwAAUhjgTvOAaoB0ljgjnKA84PvJ8QBaSxQEQc4P/hBQhyQxgIVcYDzQ5mANBa4oxzg/FAhII0F7iQHuAAkxwFpLFB+AjwAkuKANBYoOwHtB3IAJMgBaSxQZgfkAUiOA9JYoMwEFABIjgPSWKC8BPgAJMUBaSxQZgKKACTHAWksUE4CSgAkxQFpLFBWAgQAEuSANBYoGwEiAMlxQBoLlI0A5++CCEhjgdveAc7fBRKQxgK3uwNcAJLpgDQWKA8BHgBJdEAaC5SJgBwACXVAGguUgYA8AMl0QBoLlIGAAgDJdEAaC8RPgA9AEh2QxgJlIKAIQDIdkMYCcRNQAiCJDkhjgdgJcP6vHQFpLHCbOsD5kSUBaSxwezrA+ZEtAWkscFs6wAUg4Q5IY4FYCXB+9MPkOyCNBeIjwDNA0h2QxgIxEuAC8EP3K/EOSGOBmAjIGyD5DkhjgZgIyAFQDQ5IY4F4CPANkHQHpLFATAQUAKgGB6SxQBwElAyQdAeksUAsBBQBqAoHpLEAOwGiAZLvgDQWYCdAAKAaHJDGAtwEQAMk3QFpLMBOAACgGhyQxgK8BMgGSLoD0liAmQAJgKpwQBoLMBKgGiD5DkhjAUYCFACqwQFpLMBHAGaApDsgjQUYCUAAqAYHpLEAFwG4AZLugDQWYCPA+Xtk9qvCAWkswEKA8/cYAdXggDQWYCHABaBaHZDGAhwEeABUpwPSWICFgBwA1eqANBaITkAegOp0QBoLMBDw/wFhzgZmaSDYIgAAAABJRU5ErkJggg==;fontSize=10;fontStyle=1" parent="1" vertex="1">
          <mxGeometry x="580" y="490" width="80" height="80" as="geometry" />
        </mxCell>
        <mxCell id="GkWwDTA8cZI0SZPYpKMh-7" value="&lt;font style=&quot;font-size: 10px;&quot;&gt;&lt;b&gt;Generate embeddings&lt;/b&gt;&lt;/font&gt;" style="rounded=1;whiteSpace=wrap;html=1;" parent="1" vertex="1">
          <mxGeometry x="401" y="630" width="120" height="60" as="geometry" />
        </mxCell>
        <mxCell id="GkWwDTA8cZI0SZPYpKMh-8" value="&lt;font style=&quot;font-size: 10px;&quot;&gt;&lt;b&gt;Store and index embeddings&lt;/b&gt;&lt;/font&gt;" style="rounded=1;whiteSpace=wrap;html=1;" parent="1" vertex="1">
          <mxGeometry x="400" y="500" width="120" height="60" as="geometry" />
        </mxCell>
        <mxCell id="GkWwDTA8cZI0SZPYpKMh-9" value="&lt;font style=&quot;font-size: 10px;&quot;&gt;&lt;b&gt;Embeddings Model&lt;/b&gt;&lt;/font&gt;" style="sketch=0;points=[[0,0,0],[0.25,0,0],[0.5,0,0],[0.75,0,0],[1,0,0],[0,1,0],[0.25,1,0],[0.5,1,0],[0.75,1,0],[1,1,0],[0,0.25,0],[0,0.5,0],[0,0.75,0],[1,0.25,0],[1,0.5,0],[1,0.75,0]];outlineConnect=0;fontColor=#232F3E;fillColor=#01A88D;strokeColor=#ffffff;dashed=0;verticalLabelPosition=bottom;verticalAlign=top;align=center;html=1;fontSize=12;fontStyle=0;aspect=fixed;shape=mxgraph.aws4.resourceIcon;resIcon=mxgraph.aws4.bedrock;" parent="1" vertex="1">
          <mxGeometry x="582" y="621" width="78" height="78" as="geometry" />
        </mxCell>
        <mxCell id="GkWwDTA8cZI0SZPYpKMh-12" value="" style="endArrow=classic;html=1;rounded=0;" parent="1" source="GkWwDTA8cZI0SZPYpKMh-4" target="GkWwDTA8cZI0SZPYpKMh-2" edge="1">
          <mxGeometry width="50" height="50" relative="1" as="geometry">
            <mxPoint x="202" y="350" as="sourcePoint" />
            <mxPoint x="312" y="440" as="targetPoint" />
          </mxGeometry>
        </mxCell>
        <mxCell id="GkWwDTA8cZI0SZPYpKMh-13" value="" style="endArrow=classic;html=1;rounded=0;entryX=0;entryY=0.5;entryDx=0;entryDy=0;" parent="1" source="GkWwDTA8cZI0SZPYpKMh-2" target="GkWwDTA8cZI0SZPYpKMh-7" edge="1">
          <mxGeometry width="50" height="50" relative="1" as="geometry">
            <mxPoint x="162" y="390" as="sourcePoint" />
            <mxPoint x="212" y="340" as="targetPoint" />
          </mxGeometry>
        </mxCell>
        <mxCell id="GkWwDTA8cZI0SZPYpKMh-14" value="" style="endArrow=classic;html=1;rounded=0;exitX=0.5;exitY=0;exitDx=0;exitDy=0;" parent="1" source="GkWwDTA8cZI0SZPYpKMh-7" target="GkWwDTA8cZI0SZPYpKMh-8" edge="1">
          <mxGeometry width="50" height="50" relative="1" as="geometry">
            <mxPoint x="300" y="430" as="sourcePoint" />
            <mxPoint x="350" y="380" as="targetPoint" />
          </mxGeometry>
        </mxCell>
        <mxCell id="GkWwDTA8cZI0SZPYpKMh-15" value="" style="endArrow=classic;html=1;rounded=0;exitX=0.5;exitY=0;exitDx=0;exitDy=0;" parent="1" source="GkWwDTA8cZI0SZPYpKMh-6" target="GkWwDTA8cZI0SZPYpKMh-5" edge="1">
          <mxGeometry width="50" height="50" relative="1" as="geometry">
            <mxPoint x="30" y="480" as="sourcePoint" />
            <mxPoint x="80" y="430" as="targetPoint" />
          </mxGeometry>
        </mxCell>
        <mxCell id="GkWwDTA8cZI0SZPYpKMh-16" value="" style="endArrow=classic;startArrow=classic;html=1;rounded=0;entryX=0;entryY=0.5;entryDx=0;entryDy=0;" parent="1" source="GkWwDTA8cZI0SZPYpKMh-8" target="GkWwDTA8cZI0SZPYpKMh-6" edge="1">
          <mxGeometry width="50" height="50" relative="1" as="geometry">
            <mxPoint x="180" y="480" as="sourcePoint" />
            <mxPoint x="230" y="430" as="targetPoint" />
          </mxGeometry>
        </mxCell>
        <mxCell id="GkWwDTA8cZI0SZPYpKMh-17" value="" style="endArrow=classic;startArrow=classic;html=1;rounded=0;entryX=0;entryY=0.5;entryDx=0;entryDy=0;entryPerimeter=0;" parent="1" source="GkWwDTA8cZI0SZPYpKMh-7" target="GkWwDTA8cZI0SZPYpKMh-9" edge="1">
          <mxGeometry width="50" height="50" relative="1" as="geometry">
            <mxPoint y="500" as="sourcePoint" />
            <mxPoint x="50" y="450" as="targetPoint" />
          </mxGeometry>
        </mxCell>
        <mxCell id="GkWwDTA8cZI0SZPYpKMh-18" value="" style="endArrow=none;html=1;rounded=0;entryX=0.5;entryY=1;entryDx=0;entryDy=0;entryPerimeter=0;" parent="1" source="GkWwDTA8cZI0SZPYpKMh-8" target="GkWwDTA8cZI0SZPYpKMh-5" edge="1">
          <mxGeometry width="50" height="50" relative="1" as="geometry">
            <mxPoint x="-10" y="520" as="sourcePoint" />
            <mxPoint x="40" y="470" as="targetPoint" />
          </mxGeometry>
        </mxCell>
        <mxCell id="GkWwDTA8cZI0SZPYpKMh-21" value="&lt;span style=&quot;font-size: 10px;&quot;&gt;&lt;b&gt;Bedrock Agent&lt;br&gt;(option 1)&lt;/b&gt;&lt;/span&gt;" style="sketch=0;points=[[0,0,0],[0.25,0,0],[0.5,0,0],[0.75,0,0],[1,0,0],[0,1,0],[0.25,1,0],[0.5,1,0],[0.75,1,0],[1,1,0],[0,0.25,0],[0,0.5,0],[0,0.75,0],[1,0.25,0],[1,0.5,0],[1,0.75,0]];outlineConnect=0;fontColor=#232F3E;fillColor=#01A88D;strokeColor=#ffffff;dashed=0;verticalLabelPosition=bottom;verticalAlign=top;align=center;html=1;fontSize=12;fontStyle=0;aspect=fixed;shape=mxgraph.aws4.resourceIcon;resIcon=mxgraph.aws4.bedrock;" parent="1" vertex="1">
          <mxGeometry x="424" y="170" width="78" height="78" as="geometry" />
        </mxCell>
        <mxCell id="GkWwDTA8cZI0SZPYpKMh-26" value="&lt;font style=&quot;&quot;&gt;&lt;b style=&quot;font-size: 10px;&quot;&gt;AWS Lambda&lt;br&gt;&lt;/b&gt;&lt;div style=&quot;color: rgb(0, 0, 0); text-wrap: wrap;&quot;&gt;&lt;font face=&quot;Verdana&quot;&gt;&lt;span style=&quot;font-size: 10px;&quot;&gt;Test function for invoking&lt;/span&gt;&lt;/font&gt;&lt;/div&gt;&lt;div style=&quot;color: rgb(0, 0, 0); text-wrap: wrap;&quot;&gt;&lt;font face=&quot;Verdana&quot;&gt;&lt;span style=&quot;font-size: 10px;&quot;&gt;&amp;nbsp;agent or model&lt;/span&gt;&lt;/font&gt;&lt;/div&gt;&lt;/font&gt;" style="sketch=0;points=[[0,0,0],[0.25,0,0],[0.5,0,0],[0.75,0,0],[1,0,0],[0,1,0],[0.25,1,0],[0.5,1,0],[0.75,1,0],[1,1,0],[0,0.25,0],[0,0.5,0],[0,0.75,0],[1,0.25,0],[1,0.5,0],[1,0.75,0]];outlineConnect=0;fontColor=#232F3E;fillColor=#ED7100;strokeColor=#ffffff;dashed=0;verticalLabelPosition=middle;verticalAlign=middle;align=left;html=1;fontSize=12;fontStyle=0;aspect=fixed;shape=mxgraph.aws4.resourceIcon;resIcon=mxgraph.aws4.lambda;labelPosition=right;" parent="1" vertex="1">
          <mxGeometry x="424" y="30" width="78" height="78" as="geometry" />
        </mxCell>
        <mxCell id="GkWwDTA8cZI0SZPYpKMh-29" value="" style="endArrow=classic;html=1;rounded=0;entryX=0.5;entryY=0;entryDx=0;entryDy=0;exitX=0.5;exitY=1;exitDx=0;exitDy=0;exitPerimeter=0;entryPerimeter=0;" parent="1" source="GkWwDTA8cZI0SZPYpKMh-21" target="GkWwDTA8cZI0SZPYpKMh-5" edge="1">
          <mxGeometry width="50" height="50" relative="1" as="geometry">
            <mxPoint x="142" y="260" as="sourcePoint" />
            <mxPoint x="192" y="210" as="targetPoint" />
          </mxGeometry>
        </mxCell>
        <mxCell id="GkWwDTA8cZI0SZPYpKMh-32" value="&lt;font style=&quot;font-size: 10px;&quot;&gt;&lt;b&gt;AWS Lambda&lt;br&gt;&lt;/b&gt;&lt;/font&gt;" style="sketch=0;points=[[0,0,0],[0.25,0,0],[0.5,0,0],[0.75,0,0],[1,0,0],[0,1,0],[0.25,1,0],[0.5,1,0],[0.75,1,0],[1,1,0],[0,0.25,0],[0,0.5,0],[0,0.75,0],[1,0.25,0],[1,0.5,0],[1,0.75,0]];outlineConnect=0;fontColor=#232F3E;fillColor=#ED7100;strokeColor=#ffffff;dashed=0;verticalLabelPosition=bottom;verticalAlign=top;align=center;html=1;fontSize=12;fontStyle=0;aspect=fixed;shape=mxgraph.aws4.resourceIcon;resIcon=mxgraph.aws4.lambda;" parent="1" vertex="1">
          <mxGeometry x="322" y="490" width="78" height="78" as="geometry" />
        </mxCell>
        <mxCell id="PAmrMlfEqEvU_wZQyGdS-2" value="&lt;b&gt;AWS&lt;/b&gt;" style="text;html=1;align=center;verticalAlign=middle;whiteSpace=wrap;rounded=0;" parent="1" vertex="1">
          <mxGeometry x="172" y="20" width="60" height="30" as="geometry" />
        </mxCell>
        <mxCell id="PAmrMlfEqEvU_wZQyGdS-5" value="" style="endArrow=classic;startArrow=classic;html=1;rounded=0;entryX=0.5;entryY=1;entryDx=0;entryDy=0;entryPerimeter=0;" parent="1" source="GkWwDTA8cZI0SZPYpKMh-21" target="GkWwDTA8cZI0SZPYpKMh-26" edge="1">
          <mxGeometry width="50" height="50" relative="1" as="geometry">
            <mxPoint x="252" y="240" as="sourcePoint" />
            <mxPoint x="302" y="190" as="targetPoint" />
          </mxGeometry>
        </mxCell>
        <mxCell id="Ks4gkTdf0fzzjvCAkRQN-1" value="&lt;span style=&quot;font-size: 10px;&quot;&gt;&lt;b&gt;Foundation Model&lt;/b&gt;&lt;/span&gt;" style="sketch=0;points=[[0,0,0],[0.25,0,0],[0.5,0,0],[0.75,0,0],[1,0,0],[0,1,0],[0.25,1,0],[0.5,1,0],[0.75,1,0],[1,1,0],[0,0.25,0],[0,0.5,0],[0,0.75,0],[1,0.25,0],[1,0.5,0],[1,0.75,0]];outlineConnect=0;fontColor=#232F3E;fillColor=#01A88D;strokeColor=#ffffff;dashed=0;verticalLabelPosition=bottom;verticalAlign=top;align=center;html=1;fontSize=12;fontStyle=0;aspect=fixed;shape=mxgraph.aws4.resourceIcon;resIcon=mxgraph.aws4.bedrock;" parent="1" vertex="1">
          <mxGeometry x="624" y="170" width="78" height="78" as="geometry" />
        </mxCell>
        <mxCell id="Ks4gkTdf0fzzjvCAkRQN-2" value="" style="endArrow=classic;startArrow=classic;html=1;rounded=0;entryX=0;entryY=0.5;entryDx=0;entryDy=0;entryPerimeter=0;exitX=1;exitY=0.5;exitDx=0;exitDy=0;exitPerimeter=0;" parent="1" source="GkWwDTA8cZI0SZPYpKMh-21" target="Ks4gkTdf0fzzjvCAkRQN-1" edge="1">
          <mxGeometry width="50" height="50" relative="1" as="geometry">
            <mxPoint x="473" y="180" as="sourcePoint" />
            <mxPoint x="473" y="118" as="targetPoint" />
          </mxGeometry>
        </mxCell>
        <mxCell id="Ks4gkTdf0fzzjvCAkRQN-4" value="Bedrock&lt;div&gt;(option 2)&lt;br&gt;invoke-model&lt;br&gt;directly&lt;/div&gt;" style="edgeLabel;html=1;align=center;verticalAlign=middle;resizable=0;points=[];labelBackgroundColor=none;" parent="Ks4gkTdf0fzzjvCAkRQN-2" vertex="1" connectable="0">
          <mxGeometry x="-0.1436" y="-1" relative="1" as="geometry">
            <mxPoint x="8" as="offset" />
          </mxGeometry>
        </mxCell>
      </root>
    </mxGraphModel>
  </diagram>
</mxfile>
